<mxfile host="app.diagrams.net" modified="2021-08-09T08:42:30.558Z" agent="5.0 (Windows NT 10.0; Win64; x64) AppleWebKit/537.36 (KHTML, like Gecko) Chrome/92.0.4515.131 Safari/537.36" etag="DkE-ji3T06iu1lb-jUJI" version="14.9.5" type="github">
  <diagram id="TUG6RZTVmAz184jpd14f" name="Page-1">
    <mxGraphModel dx="2942" dy="1122" grid="1" gridSize="10" guides="1" tooltips="1" connect="1" arrows="1" fold="1" page="1" pageScale="1" pageWidth="827" pageHeight="1169" math="0" shadow="0">
      <root>
        <mxCell id="0" />
        <mxCell id="1" parent="0" />
        <mxCell id="HtXroHdWfU89fwAMuCRB-19" style="edgeStyle=orthogonalEdgeStyle;rounded=0;orthogonalLoop=1;jettySize=auto;html=1;fontSize=15;fontColor=#00CCCC;entryX=0.012;entryY=0.571;entryDx=0;entryDy=0;entryPerimeter=0;endArrow=none;endFill=0;" edge="1" parent="1" source="HtXroHdWfU89fwAMuCRB-1" target="HtXroHdWfU89fwAMuCRB-15">
          <mxGeometry relative="1" as="geometry">
            <mxPoint x="260" y="640" as="targetPoint" />
            <Array as="points">
              <mxPoint x="210" y="440" />
              <mxPoint x="210" y="640" />
            </Array>
          </mxGeometry>
        </mxCell>
        <mxCell id="HtXroHdWfU89fwAMuCRB-1" value="" style="pointerEvents=1;shadow=0;dashed=0;html=1;strokeColor=none;aspect=fixed;labelPosition=center;verticalLabelPosition=bottom;verticalAlign=top;align=center;outlineConnect=0;shape=mxgraph.vvd.web_browser;fillColor=#66B2FF;" vertex="1" parent="1">
          <mxGeometry x="40" y="405" width="98.59" height="70" as="geometry" />
        </mxCell>
        <mxCell id="HtXroHdWfU89fwAMuCRB-2" value="" style="shape=table;startSize=0;container=1;collapsible=0;childLayout=tableLayout;dashed=1;strokeWidth=5;dashPattern=1 1;fontColor=#66B2FF;strokeColor=#66B2FF;" vertex="1" parent="1">
          <mxGeometry x="277.5" y="280" width="202.5" height="210" as="geometry" />
        </mxCell>
        <mxCell id="HtXroHdWfU89fwAMuCRB-3" value="" style="shape=partialRectangle;collapsible=0;dropTarget=0;pointerEvents=0;fillColor=none;top=0;left=0;bottom=0;right=0;points=[[0,0.5],[1,0.5]];portConstraint=eastwest;" vertex="1" parent="HtXroHdWfU89fwAMuCRB-2">
          <mxGeometry width="202.5" height="210" as="geometry" />
        </mxCell>
        <mxCell id="HtXroHdWfU89fwAMuCRB-4" value="" style="shape=partialRectangle;html=1;whiteSpace=wrap;connectable=0;overflow=hidden;fillColor=none;top=0;left=0;bottom=0;right=0;pointerEvents=1;" vertex="1" parent="HtXroHdWfU89fwAMuCRB-3">
          <mxGeometry width="203" height="210" as="geometry" />
        </mxCell>
        <mxCell id="HtXroHdWfU89fwAMuCRB-5" value="NEKOCHAN" style="text;html=1;resizable=0;autosize=1;align=center;verticalAlign=middle;points=[];fillColor=none;strokeColor=none;rounded=0;shadow=0;strokeWidth=1;fontStyle=1;fontSize=20;fontColor=#66B2FF;" vertex="1" parent="1">
          <mxGeometry x="313.75" y="205" width="130" height="30" as="geometry" />
        </mxCell>
        <mxCell id="HtXroHdWfU89fwAMuCRB-6" value="" style="shape=image;html=1;verticalAlign=top;verticalLabelPosition=bottom;labelBackgroundColor=#ffffff;imageAspect=0;aspect=fixed;image=https://cdn3.iconfinder.com/data/icons/materia-flat-halloween-free/24/039_026_cat_black_witch_halloween-128.png;shadow=0;dashed=1;dashPattern=1 1;fontSize=20;strokeColor=#66FFFF;strokeWidth=5;" vertex="1" parent="1">
          <mxGeometry x="349.75" y="235" width="58" height="58" as="geometry" />
        </mxCell>
        <mxCell id="HtXroHdWfU89fwAMuCRB-10" value="&lt;span style=&quot;font-family: &amp;quot;amazon ember&amp;quot;, &amp;quot;helvetica neue&amp;quot;, roboto, arial, sans-serif; font-size: 14px; background-color: rgb(255, 255, 255);&quot;&gt;Amazon DynamoDB&lt;/span&gt;" style="text;html=1;resizable=0;autosize=1;align=center;verticalAlign=middle;points=[];fillColor=none;strokeColor=none;rounded=0;shadow=0;dashed=1;dashPattern=1 1;fontSize=14;fontStyle=1;fontColor=#66B2FF;" vertex="1" parent="1">
          <mxGeometry x="575" y="419" width="150" height="20" as="geometry" />
        </mxCell>
        <mxCell id="HtXroHdWfU89fwAMuCRB-14" value="" style="shape=table;startSize=0;container=1;collapsible=0;childLayout=tableLayout;dashed=1;strokeWidth=5;dashPattern=1 1;strokeColor=#66B2FF;" vertex="1" parent="1">
          <mxGeometry x="277.5" y="600" width="202.5" height="70" as="geometry" />
        </mxCell>
        <mxCell id="HtXroHdWfU89fwAMuCRB-15" value="" style="shape=partialRectangle;collapsible=0;dropTarget=0;pointerEvents=0;fillColor=none;top=0;left=0;bottom=0;right=0;points=[[0,0.5],[1,0.5]];portConstraint=eastwest;" vertex="1" parent="HtXroHdWfU89fwAMuCRB-14">
          <mxGeometry width="202.5" height="70" as="geometry" />
        </mxCell>
        <mxCell id="HtXroHdWfU89fwAMuCRB-16" value="" style="shape=partialRectangle;html=1;whiteSpace=wrap;connectable=0;overflow=hidden;fillColor=none;top=0;left=0;bottom=0;right=0;pointerEvents=1;" vertex="1" parent="HtXroHdWfU89fwAMuCRB-15">
          <mxGeometry width="203" height="70" as="geometry" />
        </mxCell>
        <mxCell id="HtXroHdWfU89fwAMuCRB-13" value="" style="shape=image;html=1;verticalAlign=top;verticalLabelPosition=bottom;labelBackgroundColor=#ffffff;imageAspect=0;aspect=fixed;image=https://cdn3.iconfinder.com/data/icons/materia-flat-halloween-free/24/039_025_cat_black_witch_halloween-128.png;shadow=0;dashed=1;dashPattern=1 1;fontSize=10;fontColor=#00CCCC;strokeColor=#46B0B0;strokeWidth=5;fillColor=#00B0B0;gradientColor=#66E6FF;gradientDirection=south;" vertex="1" parent="1">
          <mxGeometry x="348.75" y="570" width="60" height="60" as="geometry" />
        </mxCell>
        <mxCell id="HtXroHdWfU89fwAMuCRB-17" value="&lt;span style=&quot;background-color: rgb(255 , 255 , 255)&quot;&gt;&lt;font color=&quot;#66b2ff&quot;&gt;CAT API&lt;br&gt;&amp;nbsp;(&lt;span style=&quot;font-family: &amp;#34;arial&amp;#34; , sans-serif ; font-size: 15px ; text-align: left&quot;&gt;External &lt;/span&gt;&lt;span style=&quot;font-family: &amp;#34;arial&amp;#34; , sans-serif ; font-size: 15px ; text-align: left&quot;&gt;API&lt;/span&gt;)&lt;/font&gt;&lt;/span&gt;" style="text;html=1;resizable=0;autosize=1;align=center;verticalAlign=middle;points=[];fillColor=none;strokeColor=none;rounded=0;shadow=0;strokeWidth=1;fontStyle=1;fontSize=15;fontColor=#00CCCC;" vertex="1" parent="1">
          <mxGeometry x="313.75" y="620" width="120" height="40" as="geometry" />
        </mxCell>
        <mxCell id="HtXroHdWfU89fwAMuCRB-22" value="" style="shape=image;imageAspect=0;aspect=fixed;verticalLabelPosition=bottom;verticalAlign=top;shadow=0;dashed=1;dashPattern=1 1;fontSize=15;fontColor=#00CCCC;strokeColor=#46B0B0;strokeWidth=5;fillColor=#00B0B0;gradientColor=#66E6FF;gradientDirection=south;image=data:image/png,iVBORw0KGgoAAAANSUhEUgAAAgAAAAIABAMAAAAGVsnJAAAABGdBTUEAALGPC/xhBQAAAAFzUkdCAK7OHOkAAAAPUExURQAAAAAAAAAAAAAAAAAAAE8O540AAAAEdFJOUwCAPMXKWzLaAAAK3UlEQVR42u2da3qiShRFKYoBJOkagJ1mAPYNA4jI/Md0jfhARTjncIrPr/def2737Zjo0gVVPCpFQQghhBBCCCGEEEIIIYQQQgghhBBCCCGEEEIIIYQQQgghhBBCCCGEEEIIIYQQQgghhBBCCCGEEEIIIeuwAX/9AV3Ab/DXX76BC4jom8AP9E3gFlzAH/QCWvRNIPo+IKEPAtALqNEL+EIfBKAXkMALKPfgH4AKvYAGvICAXkD6Bt8EdhvweRB6AQ14AQG9gHqHvgkELyCiF5DACwgd+OHwGr2ADryAiF5AAi+gRC+gRi+g6dAHAeAHA1OHfTCw7MALqNALaMALCB34wcAEXsBhE4hdQEQvoAEvIKAXUIMXcNgEYhcQ0QtI4AUcNoHf4JtA8IOBHfjBwIheQAIvoEQv4LAJxD4c3oAXENALSOAFHDaB2AVU6AU04AUE9AISeAE/m0DoAg6bQOxTog34wcCfTSD0wcAavICfTSB0ARG9gMMgAPpweEAvoEYvoAMvIKIXkLIW8KPXOs+oOx1vp0G9bl5XngtInYW9SEC7moDy+CfNzL46P7+cArrVBPQv41s3D+qFZRWwXU1A7HQb9XD58qwC2tUElNc/in/Id34B3WoC+tchF37dZOQVsF1NgK6BeN1p5BXQriagUDWQrpvMvAI6o4C90ZtQeCnZaaZuwSHji4DtagKCQniUvDYfAe1qAo57dqHwJPlKHwHdegJq8XBYVICDgF+2BqwCgng4XIte2nIBb7YGrALkDTSir3MQUJsaMAuQTgmD7JPiICCaGjALkE4JZQV4CChMDZgFSKeEwrfFQ4CpAbsA2XA4CreVHgKCpQG7ANmUMAk/lh4CTA3YBYimhKX0TXERYGlggYAoGHtV0qfkIsDSwAIBkilhI/1QugiQ/zgfAfNTwiCeNfsIMDSwRMD8cFj+hHwEGBpYImB+OCz/SPoIMDSwSMDclFBegJcAfQOLBMw1oPjmTgL0DSwS0DfwPTkIaFcVoG9gmYDpKWFUHDn1EqBuYJmA6SlhUnxvLwHqBpYJmBwOawpwE6BuYKGAqSlhpT134CJA28BCAVNTwkbzrd0ElMoGFgqYaCCoJqduArQNLBXwfEpYq66i8BNQ6RpYKuD5lFBVgKMAZQOLBTybEgbdVSR+AsQHoZwEPBsO6wrwFKBrYLGAJ1PCUnklmaMAXQPLBYxPCaPyOipHAboGlgsYHw4n5ZV0ngJUDSwXMHqGRFuAqwBVAw4CxqaElXZO4ilA1YCDgLEGGu21pK4CoqIBBwEjw+GgvprYVYCmAQ8Bj1PCWn1kylWApgEPAY9TQvXV1M4CFA14CHgYDkd1Ac4CFA24CLi/aC7pz0/4ClA04CLgbkpYGq5YcxYgb8BHwG0D0XCe3lmAvAEfAbdTQkMB3gKOr6tdT8DNlNBSgLsAcQNOAoZTwtpypYq3AOnFWV4ChsPhRnc7SSYB0gacBAymhMF01bK7AGkDXgKqy3DYVIC/AGkDXgKuw+HOUkAGAcIGvARcpoTaW+qyCQiyBtwEnF94sl217i9A2ICbgNNHv7QVkEOArAE/Af3Gz1hADgGyBvwE9Ls/YwE5BMhu1fAT0A+AjAVkESBqwFFALb3PcS0BogZUd47uBA10tqWjcwgQNeAo4NLA5lUESBrwFFDZC8gjQNKAp4DSXkAeAZIGPAWc7g3fvI4AQQOuAhYs5ZFHgKABTwFRpmlFAYIGjgK+hPyVFPBCe4HB+j1rDITKBcsY5BJQzjbgKKCSbipWFDDfgKOA6/ogm9cRMNuA92zQOhLIJWC2AefjAbv6dY4HXL/xdhUB/cmh8DpHhGQNuAk4nx5sXuaYoKwBNwHn0wG1bTWXbALmGnATcP7ol69yXmD4j21+Adf7BtKLnBkSNuB6brC9qti8jICZBlzPDg8WG9y+joDpBpwEVIPdf7IMhzMKmG7AScDwgmlTAxkFTDfgI+D2cmHLcHi5gE1hasDxKrHdzd/2ryNgsgEfAbe3zViGwzkFTDbgeKXo5tZH+zoCphrwu1Z4d/f3/esIKCYacBFwv+c3NJBXQP28Abf7BbqHbUL7OgImGshzx0ilnhLmFTDRgNs9Q4/XKq9809SmMDXgIGDsqpi0/m1zm7n9VJtLwNj8Vz0czizgeQOZ7hxVN5BbwNMGct07nFa/eXpTmBrIdfe4toHcAo5PM4uAZ+sHKNf61gv4/fX1dyMX8KwBnxUkdk/+v/8SGvH0Sst0/+sONoWpAZ81RLbPPhlvuQTcnIoXLV37pIF8q8johsNKAeFmQX2RgCcN5FtHSHeGRCnguEzZ1/l1iwQ8aSDfSlK6MyRKAYev/jj8iKb/AbLVm8cbyLiWmGoooBMQTl8c+jdVJmC8gYyryamGAjoB8fzR6h8kEzDegMd6glPnZaXDYbWAzelhcgHjDSwTML2z1zSgE1CdX2/5+SkXUI29HznXFNU0YExAPhIsnvzm36yryirOkKgFtHoBow1kXVdYMRxW7wV+doNaAWMNLBIwt5VTDIf144Bu96EVMNbAEgHzjcuHw4aR4OEBbzoBx4c5Cpi/FkTegHEu8J9OwEgDCwQIxrryBrSzwXpoQCxgpIGlv2FiL9hPthkEFH8G82GxgJEGMv+OEfEZErWAovx12cvKBcSHBjL/lhnxcFgv4KRgpxLw2IBdQCXawEmHwxYBxw72KgGPDdgFNKJhnnQ4bBPw8yR0Ah4aMAsQ/r49aQNGAbVWwEMDZgG14rPt8fsG+3nfScD7+8elQ52AhwbMAqRbN2EDswJOb30/EW7OX6sXcN+AVYB8qis7QzIp4DTnf7t85tP5XUxqAfcNWAXID3bU4r3F7um/bS+H//qtXn16F4N2N/jYgFGA4pCvbDg8IaA8/kt5/CZ/rq/4oz891GoF3DVgFBAVB/1Fw+EJAaH/Sc3gVMjRf39e4E0r4K6B2n6Pk2bZ0llZ8wLq4foc9c09iioBx8cuFaA66SEaCkwL2F++zemLypvlSnQCbhuwCahUp34lG8zpjWD7MPQKpuMBl/1Su1BAo7oeXLLLnBJQvvf/HVwR8DMTOvxNe0RopAGTgKC7/EPSQPYrRO6e/vZmC/Uu50MzDFY0sKaAmwZUCyicn6T2EjBBA6sKGDZgERDU98TMnyFZVcCwAYsA/V1R88PhVQUMGzAIMNwXNz8cXlfAoAGDgGi4O3h2OLyugEEDBgGWe2NnG1hXwM8b0loFmO6Onm1gkYDy87M/XmRo4PhYDadHaJ/j8UGbmX8vViNYF3z6Z0imdS//IaJllYd/iZINsAHwBgr4Bmr0BgJ8Aw16AxV6AyV8Awm9gYjeQAHfQI3eQIBvoEFvoEJvoIRvIKE3ENEbKOAbqNEbCPANNOgNVOgNlPANJPQGInoDBXwDNXoDAb6BBr2BCr2BEr6BhN5AtF+g9s8MBTboQwHwBgJ8Aw16AxV6AyV8Awm9gYjeQAHfQI3eQIBvoEFvoEJvoIRvIKE3ENEbKOAbqNEbCPANNOgNVOgNlPANJPQGInoDBXwDNXoDAb6BBr2BCr2BEr6BhN5AZAPoDdToDQT0Boq/bAB9MwjfwDu6gMgG0D8Cv9EFBPQGijd0AZ8FIYQQQgghhBBCCCGEEEIIIYQQQgghhBBCCCGEEEIIIYQQQgghhBBCCCGEEEIIIYQQQgghhBBCCCGEEEIIIYQQQgghhBBCCFnA/0ZGOTkAH9HzAAAAAElFTkSuQmCC;" vertex="1" parent="1">
          <mxGeometry x="331.88" y="272.13" width="93.75" height="93.75" as="geometry" />
        </mxCell>
        <mxCell id="HtXroHdWfU89fwAMuCRB-23" value="" style="points=[[0,0,0],[0.25,0,0],[0.5,0,0],[0.75,0,0],[1,0,0],[0,1,0],[0.25,1,0],[0.5,1,0],[0.75,1,0],[1,1,0],[0,0.25,0],[0,0.5,0],[0,0.75,0],[1,0.25,0],[1,0.5,0],[1,0.75,0]];outlineConnect=0;fontColor=#232F3E;gradientColor=#4D72F3;gradientDirection=north;fillColor=#3334B9;strokeColor=#ffffff;dashed=0;verticalLabelPosition=bottom;verticalAlign=top;align=center;html=1;fontSize=12;fontStyle=0;aspect=fixed;shape=mxgraph.aws4.resourceIcon;resIcon=mxgraph.aws4.simple_email_service;shadow=0;dashPattern=1 1;" vertex="1" parent="1">
          <mxGeometry x="610" y="216" width="80" height="80" as="geometry" />
        </mxCell>
        <mxCell id="HtXroHdWfU89fwAMuCRB-24" value="" style="points=[[0,0,0],[0.25,0,0],[0.5,0,0],[0.75,0,0],[1,0,0],[0,1,0],[0.25,1,0],[0.5,1,0],[0.75,1,0],[1,1,0],[0,0.25,0],[0,0.5,0],[0,0.75,0],[1,0.25,0],[1,0.5,0],[1,0.75,0]];outlineConnect=0;fontColor=#232F3E;gradientColor=#4D72F3;gradientDirection=north;fillColor=#3334B9;strokeColor=#ffffff;dashed=0;verticalLabelPosition=bottom;verticalAlign=top;align=center;html=1;fontSize=12;fontStyle=0;aspect=fixed;shape=mxgraph.aws4.resourceIcon;resIcon=mxgraph.aws4.dynamodb;shadow=0;dashPattern=1 1;" vertex="1" parent="1">
          <mxGeometry x="610" y="341" width="78" height="78" as="geometry" />
        </mxCell>
        <mxCell id="HtXroHdWfU89fwAMuCRB-25" value="Amazon Simple Email Service" style="text;whiteSpace=wrap;html=1;fontSize=14;fontStyle=1;fontColor=#66B2FF;" vertex="1" parent="1">
          <mxGeometry x="550" y="296" width="215" height="40" as="geometry" />
        </mxCell>
        <mxCell id="HtXroHdWfU89fwAMuCRB-29" style="rounded=0;orthogonalLoop=1;jettySize=auto;html=1;fontSize=30;fontColor=#1A1A1A;endArrow=none;endFill=0;edgeStyle=orthogonalEdgeStyle;" edge="1" parent="1" source="HtXroHdWfU89fwAMuCRB-26" target="HtXroHdWfU89fwAMuCRB-1">
          <mxGeometry relative="1" as="geometry">
            <Array as="points">
              <mxPoint x="210" y="380" />
              <mxPoint x="210" y="440" />
            </Array>
          </mxGeometry>
        </mxCell>
        <mxCell id="HtXroHdWfU89fwAMuCRB-31" style="edgeStyle=orthogonalEdgeStyle;rounded=0;orthogonalLoop=1;jettySize=auto;html=1;entryX=0;entryY=0.5;entryDx=0;entryDy=0;entryPerimeter=0;fontSize=30;fontColor=#1A1A1A;endArrow=none;endFill=0;" edge="1" parent="1" source="HtXroHdWfU89fwAMuCRB-26" target="HtXroHdWfU89fwAMuCRB-23">
          <mxGeometry relative="1" as="geometry" />
        </mxCell>
        <mxCell id="HtXroHdWfU89fwAMuCRB-32" style="edgeStyle=orthogonalEdgeStyle;rounded=0;orthogonalLoop=1;jettySize=auto;html=1;fontSize=30;fontColor=#1A1A1A;endArrow=none;endFill=0;" edge="1" parent="1" source="HtXroHdWfU89fwAMuCRB-26" target="HtXroHdWfU89fwAMuCRB-24">
          <mxGeometry relative="1" as="geometry" />
        </mxCell>
        <mxCell id="HtXroHdWfU89fwAMuCRB-26" value="API" style="text;html=1;resizable=0;autosize=1;align=center;verticalAlign=middle;points=[];fillColor=none;rounded=0;shadow=0;dashed=1;dashPattern=1 1;fontSize=30;fontColor=#1A1A1A;strokeColor=#000000;" vertex="1" parent="1">
          <mxGeometry x="343.75" y="360" width="60" height="40" as="geometry" />
        </mxCell>
        <mxCell id="HtXroHdWfU89fwAMuCRB-30" style="edgeStyle=none;rounded=0;orthogonalLoop=1;jettySize=auto;html=1;fontSize=30;fontColor=#1A1A1A;endArrow=none;endFill=0;" edge="1" parent="1" source="HtXroHdWfU89fwAMuCRB-27">
          <mxGeometry relative="1" as="geometry">
            <mxPoint x="210" y="440" as="targetPoint" />
          </mxGeometry>
        </mxCell>
        <mxCell id="HtXroHdWfU89fwAMuCRB-27" value="Page&amp;nbsp;&lt;span style=&quot;color: rgb(43 , 43 , 43) ; font-family: &amp;#34;arial&amp;#34; , &amp;#34;roboto&amp;#34; , &amp;#34;“droid sans”&amp;#34; , , &amp;#34;yugothic&amp;#34; , &amp;#34;“ヒラギノ角ゴ pron w3”&amp;#34; , &amp;#34;“hiragino kaku gothic pron”&amp;#34; , , &amp;#34;meiryo&amp;#34; , sans-serif ; font-size: 16px ; background-color: rgb(255 , 255 , 255)&quot;&gt;etc.&lt;/span&gt;" style="text;whiteSpace=wrap;html=1;fontSize=20;fontColor=#1A1A1A;" vertex="1" parent="1">
          <mxGeometry x="343.75" y="420" width="60" height="40" as="geometry" />
        </mxCell>
        <mxCell id="HtXroHdWfU89fwAMuCRB-28" value="browser" style="text;html=1;resizable=0;autosize=1;align=center;verticalAlign=middle;points=[];fillColor=none;strokeColor=none;rounded=0;shadow=0;strokeWidth=1;fontStyle=0;fontSize=20;fontColor=#66B2FF;" vertex="1" parent="1">
          <mxGeometry x="44.29" y="475" width="90" height="30" as="geometry" />
        </mxCell>
      </root>
    </mxGraphModel>
  </diagram>
</mxfile>
